<svg width="90px" height="22px" viewBox="0 0 90 22" version="1.1" xmlns="http://www.w3.org/2000/svg" xmlns:xlink="http://www.w3.org/1999/xlink">
                                    <g>
                                        <path d="M57.8581076,11.1620647 C58.6059474,11.1620647 59.2634539,11.0624927 59.8306273,10.8625998 C60.3970602,10.6612097 60.8716792,10.3774666 61.2552248,10.0121193 C61.6380298,9.64527469 61.9260591,9.20655864 62.1200532,8.69746823 C62.3133068,8.18837782 62.4103039,7.62463511 62.4103039,7.00549128 C62.4103039,5.75971711 62.0341627,4.77971812 61.2818805,4.06474552 C60.5310792,3.35052153 59.3900682,2.99266101 57.8581076,2.99266101 L54.786782,2.99266101 L54.786782,11.1620647 L57.8581076,11.1620647 Z M57.8581076,0.608920042 C59.1316563,0.608920042 60.2378666,0.761647165 61.1782195,1.06710141 C62.1200532,1.37105843 62.8997316,1.80079053 63.5179951,2.35779533 C64.135518,2.91480012 64.5945881,3.58859625 64.8952048,4.37918371 C65.195081,5.16977117 65.3453894,6.04570604 65.3453894,7.00549128 C65.3453894,7.96827099 65.183234,8.85169277 64.8596639,9.65575606 C64.5375745,10.4605681 64.0629555,11.1530808 63.4350663,11.7340428 C62.8071772,12.3135075 62.0252775,12.762705 61.0893673,13.081635 C60.1534571,13.4013139 59.0761236,13.5607789 57.8581076,13.5607789 L54.786782,13.5607789 L54.786782,21.1132849 L51.8398494,21.1132849 L51.8398494,0.608920042 L57.8581076,0.608920042 Z" id="Shape" fill="#17758f"></path>
                                        <polygon points="47.1815992 18.4510415 47.1667905 20.9216273 34.8518705 20.9216273 34.8518705 0.417262477 47.1667905 0.417262477 47.1667905 2.88784828 37.8136117 2.88784828 37.8136117 9.38324295 45.3393961 9.38324295 45.3393961 11.7699786 37.8136117 11.7699786 37.8136117 18.4510415" fill="#17758f"></polygon>
                                        <polygon points="31.1576551 2.95971987 24.8461845 2.95971987 24.8461845 20.9216273 21.9140607 20.9216273 21.9140607 2.95971987 15.5759345 2.95971987 15.5759345 0.417262477 31.1576551 0.417262477" fill="#17758f"></polygon>
                                        <path d="M12.0056858,3.75929127 C11.9146122,3.92100234 11.8176151,4.04003971 11.7154351,4.11565456 C11.6147359,4.19201821 11.4851597,4.22945124 11.327447,4.22945124 C11.1615895,4.22945124 10.9720381,4.15159035 10.7587927,3.99586858 C10.5470283,3.83864958 10.2826928,3.66196507 9.96504608,3.46581563 C9.646659,3.2704148 9.26607516,3.09447909 8.82181397,2.93875732 C8.37903375,2.78153813 7.84888189,2.70218001 7.23135894,2.70218001 C6.65085766,2.70218001 6.14143817,2.78153813 5.70310046,2.93875732 C5.26476276,3.09447909 4.89750685,3.30859643 4.60133273,3.5796123 C4.30663938,3.85137679 4.0837684,4.17105548 3.93197921,4.53790013 C3.77944945,4.90324737 3.70392514,5.30078713 3.70392514,5.72977062 C3.70392514,6.28078612 3.84016524,6.73821887 4.11264543,7.10132007 C4.38512562,7.46292404 4.74201553,7.77212155 5.18479575,8.0296614 C5.62683558,8.28570383 6.1295912,8.50880531 6.69232203,8.70046288 C7.25505287,8.89062302 7.83111144,9.08826989 8.42197891,9.29340347 C9.0121058,9.49703963 9.58890495,9.73286833 10.1516358,10.0001407 C10.7143666,10.2659159 11.2163818,10.6013167 11.6591621,11.006343 C12.1034232,11.409872 12.4603132,11.9047378 12.7313124,12.4916891 C13.0037926,13.077143 13.1400327,13.7928644 13.1400327,14.6388528 C13.1400327,15.5432369 12.9897243,16.3907227 12.689848,17.1813101 C12.3914525,17.9718976 11.9560766,18.662913 11.3837201,19.2536076 C10.8106231,19.8428049 10.1072097,20.3062268 9.27199864,20.6431249 C8.43826858,20.9800231 7.49051139,21.1492207 6.42872706,21.1492207 C5.79269309,21.1492207 5.17442975,21.0848356 4.57467706,20.9575631 C3.97640533,20.8302906 3.40923198,20.6491142 2.8746376,20.4155316 C2.33930282,20.1819489 1.83876856,19.9019493 1.3730348,19.5740351 C0.906560461,19.2446236 0.488955138,18.8755331 0.120218261,18.4660148 L0.964314509,17.0106151 C1.04724326,16.8953212 1.14572111,16.7994924 1.26048863,16.7231288 C1.37673693,16.6475139 1.50927489,16.6093321 1.65736196,16.6093321 C1.85061552,16.6093321 2.0734865,16.7141448 2.32671547,16.9237703 C2.58142522,17.1333958 2.89536979,17.365481 3.26854918,17.618529 C3.64172857,17.8700795 4.0889515,18.1006675 4.61021795,18.310293 C5.13148441,18.5184212 5.76529703,18.6217365 6.51165582,18.6217365 C7.12177451,18.6217365 7.6667349,18.5393836 8.14653697,18.3731806 C8.62633905,18.2054803 9.02913586,17.9681543 9.35492739,17.6604541 C9.68219989,17.3512565 9.93394771,16.977674 10.1101714,16.5404552 C10.2856545,16.1017389 10.3737664,15.6151085 10.3737664,15.0820609 C10.3737664,14.483131 10.2390072,13.9935057 9.97096957,13.611688 C9.70441286,13.2306189 9.34900391,12.9124374 8.90474273,12.6563948 C8.46196251,12.398855 7.95994728,12.1794969 7.39721644,11.9975719 C6.83448561,11.8163957 6.25768646,11.6284814 5.66755957,11.4345778 C5.0766921,11.239177 4.50063353,11.0123323 3.9379027,10.7547924 C3.37517186,10.4972526 2.87241624,10.1618518 2.43037641,9.74859019 C1.9875962,9.33532856 1.63218725,8.81725421 1.36414957,8.19436712 C1.09759286,7.5699828 0.964314509,6.8003577 0.964314509,5.88549239 C0.964314509,5.1533005 1.10203538,4.44431738 1.37895828,3.75929127 C1.6551406,3.07501378 2.05867799,2.46784874 2.59031044,1.9385444 C3.12120251,1.40998868 3.77352596,0.986245874 4.54802139,0.668813031 C5.32177624,0.349882768 6.20733686,0.189669118 7.20470326,0.189669118 C8.31979893,0.189669118 9.34604217,0.373839964 10.2819524,0.740684618 C11.2193434,1.10603185 12.0338224,1.63159274 12.7253889,2.31587023 L12.0056858,3.75929127 Z" id="Shape" fill="#17758f"></path>
                                        <polygon points="64.932373 20.9216273 89.6913457 20.9216273 89.6913457 16.6409302 64.932373 16.6409302" fill="#17758f"></polygon>
                                        <polygon points="69.265686 14.072876 89.6913457 14.072876 89.6913457 10.580945 69.265686 10.580945" fill="#17758f"></polygon>
                                        <polygon points="73.8741455 7.76968271 89.6913457 7.76968271 89.6913457 5.03112793 73.8741455 5.03112793" fill="#17758f"></polygon>
                                        <polygon points="77.2799377 2.28634644 89.6913457 2.28634644 89.6913457 0.320198302 77.2799377 0.320198302" fill="#17758f"></polygon>
                                    </g>
                                </svg>
